<svg width="20" height="21" viewBox="0 0 20 21" fill="none" xmlns="http://www.w3.org/2000/svg">
<path d="M5.88 2.39011L4.6 0.860107L0 4.71011L1.29 6.24011L5.88 2.39011ZM20 4.72011L15.4 0.860107L14.11 2.39011L18.71 6.25011L20 4.72011ZM10 3.00011C5.03 3.00011 1 7.03011 1 12.0001C1 16.9701 5.02 21.0001 10 21.0001C12.3869 21.0001 14.6761 20.0519 16.364 18.3641C18.0518 16.6762 19 14.3871 19 12.0001C19 9.61316 18.0518 7.32397 16.364 5.63615C14.6761 3.94832 12.3869 3.00011 10 3.00011ZM10 19.0001C6.13 19.0001 3 15.8701 3 12.0001C3 8.13011 6.13 5.00011 10 5.00011C13.87 5.00011 17 8.13011 17 12.0001C17 15.8701 13.87 19.0001 10 19.0001ZM11 8.00011H9V11.0001H6V13.0001H9V16.0001H11V13.0001H14V11.0001H11V8.00011Z" fill="#25282B"/>
</svg>
