<svg width="24" height="24" viewBox="0 0 24 24" fill="none" xmlns="http://www.w3.org/2000/svg">
<path d="M14.1751 21.775C13.8751 21.8417 13.6124 21.7793 13.3871 21.588C13.1618 21.3967 13.0494 21.134 13.0501 20.8C13.0501 20.5667 13.1294 20.354 13.2881 20.162C13.4468 19.97 13.6424 19.841 13.8751 19.775C14.2918 19.675 14.6961 19.546 15.0881 19.388C15.4801 19.23 15.8591 19.034 16.2251 18.8C16.4418 18.6667 16.6794 18.6123 16.9381 18.637C17.1968 18.6617 17.4091 18.7577 17.5751 18.925C17.8084 19.1583 17.9128 19.425 17.8881 19.725C17.8634 20.025 17.7174 20.2583 17.4501 20.425C16.9334 20.7583 16.4041 21.0333 15.8621 21.25C15.3201 21.4667 14.7578 21.6417 14.1751 21.775ZM19.0001 17.5C18.8334 17.3333 18.7374 17.125 18.7121 16.875C18.6868 16.625 18.7411 16.4 18.8751 16.2C19.0918 15.8333 19.2834 15.4583 19.4501 15.075C19.6168 14.6917 19.7501 14.2833 19.8501 13.85C19.9168 13.6167 20.0501 13.4167 20.2501 13.25C20.4501 13.0833 20.6668 13 20.9001 13C21.2334 13 21.4958 13.1167 21.6871 13.35C21.8784 13.5833 21.9328 13.85 21.8501 14.15C21.7168 14.75 21.5374 15.321 21.3121 15.863C21.0868 16.405 20.8078 16.9173 20.4751 17.4C20.3084 17.65 20.0791 17.7877 19.7871 17.813C19.4951 17.8383 19.2328 17.734 19.0001 17.5ZM20.8751 11C20.6418 11 20.4291 10.9167 20.2371 10.75C20.0451 10.5833 19.9161 10.3833 19.8501 10.15C19.7501 9.71666 19.6168 9.30399 19.4501 8.91199C19.2834 8.51999 19.0918 8.14933 18.8751 7.79999C18.7418 7.59999 18.6874 7.37499 18.7121 7.12499C18.7368 6.87499 18.8328 6.66666 19.0001 6.49999C19.2334 6.26666 19.4961 6.15833 19.7881 6.17499C20.0801 6.19166 20.3091 6.32499 20.4751 6.57499C20.8084 7.05832 21.0918 7.57932 21.3251 8.13799C21.5584 8.69666 21.7418 9.26733 21.8751 9.84999C21.9418 10.15 21.8751 10.4167 21.6751 10.65C21.4751 10.8833 21.2084 11 20.8751 11ZM9.9501 21.75C7.66676 21.2167 5.78776 20.05 4.3131 18.25C2.83843 16.45 2.10076 14.3667 2.1001 12C2.1001 9.61666 2.83343 7.51666 4.3001 5.69999C5.76676 3.88332 7.64176 2.72499 9.9251 2.22499C10.2251 2.15833 10.4878 2.22099 10.7131 2.41299C10.9384 2.60499 11.0508 2.85899 11.0501 3.17499C11.0501 3.40833 10.9708 3.62099 10.8121 3.81299C10.6534 4.00499 10.4578 4.13399 10.2251 4.19999C8.44176 4.63333 6.9751 5.57499 5.8251 7.02499C4.6751 8.47499 4.1001 10.1333 4.1001 12C4.1001 13.8667 4.6751 15.5127 5.8251 16.938C6.9751 18.3633 8.44176 19.309 10.2251 19.775C10.4584 19.8417 10.6544 19.975 10.8131 20.175C10.9718 20.375 11.0508 20.5917 11.0501 20.825C11.0501 21.1417 10.9418 21.3917 10.7251 21.575C10.5084 21.7583 10.2501 21.8167 9.9501 21.75ZM16.3001 5.22499C15.9168 4.99166 15.5251 4.78733 15.1251 4.61199C14.7251 4.43666 14.3168 4.29932 13.9001 4.19999C13.6668 4.13332 13.4668 4.00399 13.3001 3.81199C13.1334 3.61999 13.0501 3.40766 13.0501 3.17499C13.0501 2.85833 13.1628 2.60433 13.3881 2.41299C13.6134 2.22166 13.8758 2.15899 14.1751 2.22499C14.7584 2.35833 15.3251 2.53333 15.8751 2.74999C16.4251 2.96666 16.9584 3.24166 17.4751 3.57499C17.7418 3.74166 17.8878 3.97499 17.9131 4.27499C17.9384 4.57499 17.8341 4.84166 17.6001 5.07499C17.4334 5.24166 17.2291 5.34166 16.9871 5.37499C16.7451 5.40833 16.5161 5.35833 16.3001 5.22499ZM12.0751 16.65C11.9418 16.65 11.8168 16.6293 11.7001 16.588C11.5834 16.5467 11.4751 16.484 11.3751 16.4C10.2751 15.3833 9.4501 14.4333 8.9001 13.55C8.3501 12.6667 8.0751 11.85 8.0751 11.1C8.0751 9.84999 8.47943 8.85433 9.2881 8.11299C10.0968 7.37166 11.0258 7.00066 12.0751 6.99999C13.1251 6.99999 14.0544 7.37099 14.8631 8.11299C15.6718 8.85499 16.0758 9.85066 16.0751 11.1C16.0751 11.85 15.8001 12.6667 15.2501 13.55C14.7001 14.4333 13.8751 15.3833 12.7751 16.4C12.6751 16.4833 12.5668 16.546 12.4501 16.588C12.3334 16.63 12.2084 16.6507 12.0751 16.65ZM12.0751 12C12.3751 12 12.6294 11.896 12.8381 11.688C13.0468 11.48 13.1508 11.2257 13.1501 10.925C13.1501 10.6417 13.0458 10.3917 12.8371 10.175C12.6284 9.95833 12.3744 9.84999 12.0751 9.84999C11.7751 9.84999 11.5211 9.95833 11.3131 10.175C11.1051 10.3917 11.0008 10.6417 11.0001 10.925C11.0001 11.225 11.1044 11.4793 11.3131 11.688C11.5218 11.8967 11.7758 12.0007 12.0751 12Z" fill="white"/>
</svg>
