<svg width="26" height="20" viewBox="0 0 26 20" fill="none" xmlns="http://www.w3.org/2000/svg">
<path d="M7.70625 1.6812C7.64068 1.52155 7.64065 1.34249 7.70616 1.18281C7.77167 1.02313 7.89745 0.895681 8.05625 0.828076C8.21746 0.762066 8.39809 0.761724 8.55955 0.827125C8.72101 0.892526 8.85049 1.01848 8.92031 1.17808L9.75156 3.20151C9.7871 3.28018 9.80622 3.36528 9.80773 3.45159C9.80924 3.5379 9.79312 3.62361 9.76035 3.70348C9.72759 3.78334 9.67887 3.85568 9.61717 3.91606C9.55548 3.97644 9.48211 4.0236 9.40156 4.05464C9.32355 4.09346 9.23709 4.11226 9.15 4.10933C9.01952 4.10915 8.89195 4.07073 8.78309 3.9988C8.67422 3.92687 8.58884 3.8246 8.5375 3.70464L7.70625 1.6812ZM1.42813 8.67026L3.45156 9.50151C3.53131 9.53514 3.61661 9.55368 3.70312 9.5562C3.85301 9.5538 3.99756 9.50015 4.11272 9.40419C4.22788 9.30823 4.30672 9.17573 4.33611 9.02874C4.36551 8.88174 4.3437 8.72912 4.27431 8.59624C4.20491 8.46337 4.09212 8.35825 3.95469 8.29839L1.93125 7.4562C1.77159 7.39063 1.59253 7.3906 1.43285 7.45611C1.27317 7.52162 1.14573 7.6474 1.07812 7.8062C1.01211 7.96741 1.01177 8.14804 1.07717 8.3095C1.14258 8.47096 1.26853 8.60044 1.42813 8.67026ZM22.2969 9.5562C22.3834 9.55368 22.4687 9.53514 22.5484 9.50151L24.5719 8.67026C24.7315 8.60044 24.8574 8.47096 24.9228 8.3095C24.9882 8.14804 24.9879 7.96741 24.9219 7.8062C24.8543 7.6474 24.7268 7.52162 24.5671 7.45611C24.4075 7.3906 24.2284 7.39063 24.0688 7.4562L22.0453 8.29839C21.9079 8.35825 21.7951 8.46337 21.7257 8.59624C21.6563 8.72912 21.6345 8.88174 21.6639 9.02874C21.6933 9.17573 21.7721 9.30823 21.8873 9.40419C22.0024 9.50015 22.147 9.5538 22.2969 9.5562ZM16.5984 4.05464C16.6765 4.09346 16.7629 4.11226 16.85 4.10933C16.9805 4.10915 17.108 4.07073 17.2169 3.9988C17.3258 3.92687 17.4112 3.8246 17.4625 3.70464L18.2937 1.6812C18.3593 1.52155 18.3594 1.34249 18.2938 1.18281C18.2283 1.02313 18.1026 0.895681 17.9438 0.828076C17.7825 0.762066 17.6019 0.761724 17.4404 0.827125C17.279 0.892526 17.1495 1.01848 17.0797 1.17808L16.2484 3.20151C16.2129 3.28018 16.1938 3.36528 16.1923 3.45159C16.1908 3.5379 16.2069 3.62361 16.2396 3.70348C16.2724 3.78334 16.3211 3.85568 16.3828 3.91606C16.4445 3.97644 16.5179 4.0236 16.5984 4.05464ZM25.9062 14.5C25.9062 14.674 25.8371 14.8409 25.714 14.964C25.591 15.0871 25.424 15.1562 25.25 15.1562H0.75C0.575952 15.1562 0.409032 15.0871 0.285961 14.964C0.16289 14.8409 0.09375 14.674 0.09375 14.5C0.09375 14.3259 0.16289 14.159 0.285961 14.0359C0.409032 13.9128 0.575952 13.8437 0.75 13.8437H5.86875C5.70689 12.8136 5.77011 11.7607 6.05408 10.7573C6.33804 9.75399 6.83599 8.82409 7.51369 8.0316C8.19138 7.2391 9.03271 6.60284 9.9798 6.16657C10.9269 5.73031 11.9573 5.5044 13 5.5044C14.0427 5.5044 15.0731 5.73031 16.0202 6.16657C16.9673 6.60284 17.8086 7.2391 18.4863 8.0316C19.164 8.82409 19.662 9.75399 19.9459 10.7573C20.2299 11.7607 20.2931 12.8136 20.1313 13.8437H25.25C25.424 13.8437 25.591 13.9128 25.714 14.0359C25.8371 14.159 25.9062 14.3259 25.9062 14.5ZM7.19219 13.8437H18.8078C18.8736 13.4828 18.9066 13.1168 18.9062 12.75C18.9062 11.1835 18.284 9.68124 17.1763 8.5736C16.0687 7.46596 14.5664 6.8437 13 6.8437C11.4336 6.8437 9.93129 7.46596 8.82365 8.5736C7.71601 9.68124 7.09375 11.1835 7.09375 12.75C7.09345 13.1168 7.1264 13.4828 7.19219 13.8437ZM21.75 18.2187H4.25C4.07595 18.2187 3.90903 18.2878 3.78596 18.4109C3.66289 18.534 3.59375 18.7009 3.59375 18.875C3.59375 19.049 3.66289 19.2159 3.78596 19.339C3.90903 19.4621 4.07595 19.5312 4.25 19.5312H21.75C21.924 19.5312 22.091 19.4621 22.214 19.339C22.3371 19.2159 22.4062 19.049 22.4062 18.875C22.4062 18.7009 22.3371 18.534 22.214 18.4109C22.091 18.2878 21.924 18.2187 21.75 18.2187Z" fill="black"/>
</svg>
