<svg width="22" height="22" viewBox="0 0 22 22" fill="none" xmlns="http://www.w3.org/2000/svg">
<path d="M11 16.6719C9.87821 16.6719 8.78161 16.3392 7.84888 15.716C6.91614 15.0928 6.18916 14.2069 5.75987 13.1705C5.33058 12.1341 5.21826 10.9937 5.43711 9.89347C5.65596 8.79324 6.19615 7.7826 6.98938 6.98938C7.78261 6.19615 8.79324 5.65596 9.89347 5.43711C10.9937 5.21826 12.1341 5.33058 13.1705 5.75987C14.2069 6.18916 15.0928 6.91614 15.716 7.84888C16.3392 8.78161 16.6719 9.87821 16.6719 11C16.6696 12.5036 16.0713 13.9449 15.0081 15.0081C13.9449 16.0713 12.5036 16.6696 11 16.6719ZM11 6.35938C10.0822 6.35938 9.18495 6.63154 8.42181 7.14146C7.65866 7.65138 7.06386 8.37615 6.71262 9.22411C6.36138 10.0721 6.26948 11.0051 6.44854 11.9053C6.6276 12.8055 7.06958 13.6324 7.71858 14.2814C8.36759 14.9304 9.19447 15.3724 10.0947 15.5515C10.9949 15.7305 11.9279 15.6386 12.7759 15.2874C13.6239 14.9361 14.3486 14.3413 14.8585 13.5782C15.3685 12.815 15.6406 11.9178 15.6406 11C15.6406 9.76923 15.1517 8.58887 14.2814 7.71858C13.4111 6.8483 12.2308 6.35938 11 6.35938ZM10.4844 18.9062V19.5938C10.4844 19.7305 10.5387 19.8617 10.6354 19.9584C10.7321 20.0551 10.8632 20.1094 11 20.1094C11.1368 20.1094 11.2679 20.0551 11.3646 19.9584C11.4613 19.8617 11.5156 19.7305 11.5156 19.5938V18.9062C11.5156 18.7695 11.4613 18.6383 11.3646 18.5416C11.2679 18.4449 11.1368 18.3906 11 18.3906C10.8632 18.3906 10.7321 18.4449 10.6354 18.5416C10.5387 18.6383 10.4844 18.7695 10.4844 18.9062ZM4.55469 16.7148C4.45782 16.8117 4.4034 16.9431 4.4034 17.0801C4.4034 17.2171 4.45782 17.3484 4.55469 17.4453C4.65155 17.5422 4.78293 17.5966 4.91992 17.5966C5.05691 17.5966 5.18829 17.5422 5.28516 17.4453L5.775 16.9555C5.87002 16.8576 5.92317 16.7266 5.92317 16.5902C5.92317 16.4538 5.87002 16.3228 5.775 16.225C5.72642 16.177 5.66864 16.1393 5.60514 16.1142C5.54164 16.0891 5.47373 16.0771 5.40547 16.0789C5.33858 16.0778 5.27215 16.0902 5.21014 16.1152C5.14813 16.1403 5.09181 16.1777 5.04453 16.225L4.55469 16.7148ZM3.60938 11C3.60938 10.8632 3.55505 10.7321 3.45835 10.6354C3.36165 10.5387 3.2305 10.4844 3.09375 10.4844H2.40625C2.2695 10.4844 2.13835 10.5387 2.04165 10.6354C1.94495 10.7321 1.89062 10.8632 1.89062 11C1.89062 11.1368 1.94495 11.2679 2.04165 11.3646C2.13835 11.4613 2.2695 11.5156 2.40625 11.5156H3.09375C3.2305 11.5156 3.36165 11.4613 3.45835 11.3646C3.55505 11.2679 3.60938 11.1368 3.60938 11ZM5.775 5.775C5.87002 5.67717 5.92317 5.54615 5.92317 5.40977C5.92317 5.27338 5.87002 5.14237 5.775 5.04453L5.28516 4.55469C5.18806 4.46146 5.05883 4.40915 4.92422 4.40859C4.7873 4.41035 4.65579 4.46234 4.55469 4.55469C4.45967 4.65252 4.40651 4.78354 4.40651 4.91992C4.40651 5.05631 4.45967 5.18732 4.55469 5.28516L5.04453 5.775C5.14237 5.87002 5.27338 5.92317 5.40977 5.92317C5.54615 5.92317 5.67717 5.87002 5.775 5.775ZM11.5156 3.09375V2.40625C11.5156 2.2695 11.4613 2.13835 11.3646 2.04165C11.2679 1.94495 11.1368 1.89062 11 1.89062C10.8632 1.89062 10.7321 1.94495 10.6354 2.04165C10.5387 2.13835 10.4844 2.2695 10.4844 2.40625V3.09375C10.4844 3.2305 10.5387 3.36165 10.6354 3.45835C10.7321 3.55505 10.8632 3.60938 11 3.60938C11.1368 3.60938 11.2679 3.55505 11.3646 3.45835C11.4613 3.36165 11.5156 3.2305 11.5156 3.09375ZM17.4453 5.28516C17.5403 5.18732 17.5935 5.05631 17.5935 4.91992C17.5935 4.78354 17.5403 4.65252 17.4453 4.55469C17.3442 4.46234 17.2127 4.41035 17.0758 4.40859C16.9412 4.40915 16.8119 4.46146 16.7148 4.55469L16.225 5.04453C16.1281 5.1414 16.0737 5.27278 16.0737 5.40977C16.0737 5.54675 16.1281 5.67813 16.225 5.775C16.3219 5.87187 16.4532 5.92628 16.5902 5.92628C16.7272 5.92628 16.8586 5.87187 16.9555 5.775L17.4453 5.28516ZM20.1094 11C20.1094 10.8632 20.055 10.7321 19.9584 10.6354C19.8617 10.5387 19.7305 10.4844 19.5938 10.4844H18.9062C18.7695 10.4844 18.6383 10.5387 18.5416 10.6354C18.445 10.7321 18.3906 10.8632 18.3906 11C18.3906 11.1368 18.445 11.2679 18.5416 11.3646C18.6383 11.4613 18.7695 11.5156 18.9062 11.5156H19.5938C19.7305 11.5156 19.8617 11.4613 19.9584 11.3646C20.055 11.2679 20.1094 11.1368 20.1094 11ZM17.4453 17.4453C17.5403 17.3475 17.5935 17.2165 17.5935 17.0801C17.5935 16.9437 17.5403 16.8127 17.4453 16.7148L16.9555 16.225C16.9082 16.1777 16.8519 16.1403 16.7899 16.1152C16.7278 16.0902 16.6614 16.0778 16.5945 16.0789C16.5263 16.0771 16.4584 16.0891 16.3949 16.1142C16.3314 16.1393 16.2736 16.177 16.225 16.225C16.13 16.3228 16.0768 16.4538 16.0768 16.5902C16.0768 16.7266 16.13 16.8576 16.225 16.9555L16.7148 17.4453C16.8127 17.5403 16.9437 17.5935 17.0801 17.5935C17.2165 17.5935 17.3475 17.5403 17.4453 17.4453Z" fill="white"/>
</svg>
